
<svg width="70" height="25" viewBox="0 0 1372 194" fill="#CBD5E1" xmlns="http://www.w3.org/2000/svg">
  <g clip-path="url(#clip0_420_50)">
    <g clip-path="url(#clip1_420_50)">
      <path fill-rule="evenodd" clip-rule="evenodd" d="M71.3583 38.3837C70.4588 38.5718 69.7319 39.1185 69.268 39.9557L68.9409 40.5463V46.8127V53.0791L69.2025 53.5782C70.4419 55.9417 73.5968 55.9133 74.8568 53.527L75.1519 52.9679V46.7574C75.1519 40.5683 75.151 40.5445 74.9076 40.0898C74.1865 38.742 72.8104 38.0809 71.3583 38.3837ZM87.9619 38.3723C87.0139 38.5754 86.1534 39.2713 85.7521 40.1579C85.5339 40.6406 85.5266 40.8616 85.5252 46.8127L85.5239 52.9679L85.7828 53.5229C87.0034 56.1347 90.8308 55.8154 91.6397 53.0347C91.9046 52.1238 91.8511 41.0423 91.5784 40.335C91.0363 38.93 89.4291 38.0575 87.9619 38.3723ZM105.818 38.3723C104.87 38.5754 104.01 39.2713 103.608 40.1579C103.39 40.6406 103.383 40.8616 103.381 46.8127L103.38 52.9679L103.639 53.5229C104.858 56.1283 108.689 55.809 109.496 53.0347C109.761 52.1238 109.707 41.0423 109.435 40.335C108.892 38.93 107.285 38.0575 105.818 38.3723ZM122.376 38.3837C121.44 38.5796 120.694 39.1601 120.27 40.0243L119.959 40.6571V46.8681C119.959 53.7946 119.913 53.3568 120.744 54.345C122.213 56.0899 125.406 55.3437 126.057 53.1038C126.371 52.0227 126.257 40.7092 125.926 40.0898C125.205 38.742 123.828 38.0809 122.376 38.3837ZM74.4862 63.0759C69.3037 63.6963 65.6853 66.7167 64.3562 71.5324L64.0616 72.5993L64.0278 95.6129C63.9925 119.514 64.0049 120.268 64.4564 121.899C65.5627 125.894 68.859 128.982 72.9316 129.839C73.8764 130.038 119.539 130.077 121.091 129.881C126.324 129.217 130.321 125.097 130.879 119.791C131.034 118.324 131.034 74.4746 130.88 73.2064C130.271 68.2027 126.905 64.4301 122.011 63.2672C121.246 63.0855 75.9301 62.903 74.4862 63.0759ZM41.7452 67.9995C38.9591 68.5636 38.4256 72.3916 40.9364 73.8075L41.5462 74.152L47.4663 74.1831C52.5376 74.2101 53.4709 74.19 53.9747 74.0436C56.7617 73.2333 56.963 69.3958 54.2844 68.1414C53.8122 67.9204 42.7549 67.795 41.7452 67.9995ZM141.148 68.0078C138.591 68.6227 137.962 72.2571 140.169 73.657C141.042 74.2106 141.126 74.2165 147.49 74.1831L153.453 74.152L154.063 73.8075C156.324 72.5329 156.209 69.3666 153.861 68.1986L153.343 67.941L147.464 67.9218C144.055 67.9103 141.402 67.9465 141.148 68.0078ZM121.828 69.8652C123.271 70.5762 124.297 71.9601 124.554 73.544C124.715 74.5354 124.717 118.45 124.556 119.458C124.314 120.973 123.308 122.405 122.03 123.053C120.73 123.712 122.123 123.679 97.143 123.647L74.2643 123.617L73.5991 123.352C71.8551 122.655 70.6899 121.214 70.4328 119.437C70.2479 118.159 70.3028 74.1744 70.4899 73.2901C70.8756 71.4701 72.2833 69.9554 73.9587 69.5578C74.1966 69.5015 84.3874 69.4668 97.724 69.4764L121.073 69.4937L121.828 69.8652ZM41.3115 84.7011C38.7468 85.611 38.6406 89.3017 41.1441 90.5351L41.6569 90.7881H47.7019H53.7464L54.326 90.5259C56.8839 89.3694 56.7746 85.5859 54.1572 84.6942C53.4275 84.4453 42.0151 84.4517 41.3115 84.7011ZM140.79 84.7033C138.296 85.5872 138.126 89.2509 140.524 90.4312L141.249 90.7881H147.295H153.343L153.861 90.5305C156.372 89.2815 156.238 85.5785 153.649 84.6965C152.908 84.4439 141.505 84.4499 140.79 84.7033ZM41.3115 102.558C38.7468 103.467 38.6406 107.158 41.1441 108.392L41.6569 108.644H47.7572H53.8571L54.3722 108.388C56.8839 107.139 56.7476 103.433 54.1572 102.55C53.4275 102.302 42.0151 102.308 41.3115 102.558ZM140.79 102.56C138.296 103.443 138.126 107.107 140.524 108.287L141.249 108.644H147.295H153.343L153.861 108.387C156.372 107.138 156.238 103.435 153.649 102.553C152.908 102.3 141.505 102.307 140.79 102.56ZM41.7452 119.018C38.7454 119.625 38.4595 124.066 41.3573 125.053C42.1144 125.311 53.4 125.311 54.1572 125.053C56.7297 124.176 56.8711 120.457 54.3791 119.219L53.8571 118.959L48.0345 118.941C44.832 118.931 42.0019 118.966 41.7452 119.018ZM141.148 119.026C138.102 119.758 138.054 124.274 141.083 125.115C141.803 125.315 153.043 125.258 153.649 125.051C156.238 124.169 156.372 120.466 153.861 119.217L153.343 118.959L147.464 118.94C144.055 118.928 141.402 118.965 141.148 119.026ZM70.7155 138.241C68.9404 139.072 68.9409 139.071 68.9409 146.409V152.564L69.2025 153.063C70.4497 155.442 73.6252 155.418 74.9076 153.021C75.1871 152.498 75.3559 141.163 75.0983 140.206C74.6161 138.416 72.4339 137.438 70.7155 138.241ZM87.3516 138.187C86.7252 138.473 86.2316 138.918 85.8798 139.517L85.5769 140.032L85.5458 146.225L85.5147 152.418L85.7778 152.99C86.9375 155.512 90.5747 155.377 91.5784 152.776C91.9014 151.938 91.9014 140.769 91.5784 139.931C90.959 138.326 88.9061 137.478 87.3516 138.187ZM105.208 138.187C104.581 138.473 104.088 138.918 103.736 139.517L103.434 140.032L103.402 146.225L103.371 152.418L103.634 152.99C104.794 155.512 108.431 155.377 109.435 152.776C109.758 151.938 109.758 140.769 109.435 139.931C108.815 138.326 106.763 137.478 105.208 138.187ZM121.734 138.241C121.063 138.555 120.542 139.069 120.208 139.748C119.82 140.536 119.816 152.297 120.203 153.021C121.499 155.444 124.63 155.444 125.926 153.021C126.205 152.498 126.374 141.163 126.116 140.206C125.634 138.416 123.452 137.438 121.734 138.241Z" fill="black"/>
      <path fill-rule="evenodd" clip-rule="evenodd" d="M20.0302 5.16652C13.2299 6.24897 7.94211 11.2389 6.30197 18.1211L6.05904 19.1409L6.02473 95.9455C6.00002 151.803 6.02427 172.992 6.11394 173.637C7.11083 180.819 12.5459 186.501 19.6335 187.773L20.9008 188H97.5H174.099L175.367 187.773C182.444 186.503 187.892 180.807 188.886 173.637C188.975 172.993 189 151.734 188.975 95.9455L188.941 19.1409L188.698 18.1211C187.044 11.1808 181.74 6.21237 174.859 5.15692C173.434 4.93869 21.4045 4.94784 20.0302 5.16652ZM73.2946 38.4917C74.1071 38.8605 74.5212 39.2567 74.9014 40.0299L75.2628 40.7637V46.8105C75.2628 52.8092 75.2609 52.8614 75.0185 53.3806C73.769 56.0593 70.3131 56.0739 69.0829 53.4058L68.8299 52.8572V46.8127V40.7683L69.1176 40.158C69.8698 38.5631 71.7762 37.8027 73.2946 38.4917ZM89.7591 38.4451C90.4371 38.6761 91.1216 39.2823 91.4876 39.9763L91.7881 40.5464L91.8224 46.5355C91.8595 53.0686 91.8622 53.0338 91.2199 53.9836C89.8502 56.008 86.9254 55.8205 85.7615 53.6336L85.4664 53.0791V46.8127C85.4664 40.5665 85.4673 40.545 85.7107 40.0898C86.5255 38.5663 88.1629 37.9011 89.7591 38.4451ZM107.615 38.4451C108.294 38.6761 108.978 39.2823 109.344 39.9763L109.644 40.5464L109.679 46.5355C109.716 53.0686 109.718 53.0338 109.076 53.9836C107.706 56.008 104.782 55.8205 103.618 53.6336L103.323 53.0791V46.8127C103.323 40.5665 103.324 40.545 103.567 40.0898C104.382 38.5663 106.019 37.9011 107.615 38.4451ZM124.313 38.4917C125.095 38.8468 125.558 39.2741 125.929 39.9836L126.281 40.6571V46.7574C126.281 52.7749 126.278 52.8641 126.041 53.376C124.805 56.0501 121.328 56.0675 120.101 53.4058L119.848 52.8572V46.8127V40.7683L120.136 40.158C120.888 38.5631 122.795 37.8027 124.313 38.4917ZM122.484 63.3166C126.928 64.6036 129.985 67.9126 130.826 72.3467C131.081 73.6922 131.081 119.269 130.825 120.733C130.029 125.301 126.248 129.06 121.63 129.878C121.184 129.957 113.61 129.994 98.1634 129.994C85.6187 129.994 75.3177 130.032 75.2719 130.078C75.142 130.208 73.9136 130.108 72.8783 129.884C68.7338 128.986 65.4503 125.838 64.3175 121.676L64.0609 120.734V96.5554V72.3774L64.3185 71.4345C65.4901 67.1418 69.238 63.7467 73.4881 63.1277C73.855 63.0741 84.8099 63.0389 97.888 63.049L121.623 63.0673L122.484 63.3166ZM54.2727 68.1062C56.8612 69.0747 56.9138 72.7356 54.3564 73.9686L53.7466 74.2627L48.0475 74.2952C41.658 74.3318 41.5043 74.3181 40.5641 73.6451C38.5644 72.2132 38.9464 68.9978 41.2216 68.1094C42.0817 67.7736 53.3764 67.7708 54.2727 68.1062ZM153.758 68.1062C156.332 69.0692 156.387 72.7466 153.847 74.012L153.343 74.2627H147.298H141.253L140.675 74.0011C138.632 73.0774 138.083 70.2674 139.664 68.8226C140.723 67.8532 140.378 67.8957 147.211 67.8902C152.894 67.8857 153.195 67.8957 153.758 68.1062ZM73.9873 69.6393C72.306 70.0789 71.0428 71.3439 70.589 73.0426C70.3506 73.9352 70.3689 119.035 70.6082 119.953C71.0533 121.662 72.3389 122.956 74.0426 123.411C74.9352 123.649 120.035 123.631 120.953 123.392C122.689 122.94 123.941 121.683 124.396 119.937C124.6 119.155 124.646 74.0971 124.444 73.2215C124.035 71.445 122.62 70.003 120.903 69.6123C119.685 69.3355 75.0519 69.3611 73.9873 69.6393ZM54.2832 84.659C56.7798 85.7881 56.9413 89.1416 54.5627 90.4592L53.968 90.7881L47.9354 90.8197C41.1228 90.8549 41.2028 90.8631 40.2979 90.0291C38.4185 88.297 39.2168 85.1233 41.6814 84.5295C42.5296 84.3255 53.801 84.4408 54.2832 84.659ZM153.888 84.718C155.915 85.6531 156.374 88.4622 154.748 89.9838C153.8 90.87 153.934 90.8554 147.065 90.8197L141.032 90.7881L140.462 90.4875C137.988 89.1827 138.266 85.536 140.91 84.6114C141.884 84.2706 153.118 84.3625 153.888 84.718ZM54.2832 102.515C56.912 103.704 56.8557 107.608 54.1972 108.514C53.29 108.823 42.0803 108.793 41.2422 108.479C38.4052 107.418 38.7168 103.1 41.6814 102.386C42.5296 102.182 53.801 102.297 54.2832 102.515ZM153.888 102.574C155.915 103.509 156.374 106.318 154.748 107.84C153.8 108.726 153.934 108.712 147.065 108.676L141.032 108.644L140.462 108.344C137.988 107.039 138.266 103.393 140.91 102.468C141.884 102.127 153.118 102.219 153.888 102.574ZM54.2919 119.132C56.885 120.102 56.8791 123.914 54.2832 125.088C53.6322 125.383 41.8822 125.383 41.2316 125.088C38.6221 123.908 38.6157 120.145 41.2216 119.127C42.0963 118.786 53.3778 118.79 54.2919 119.132ZM153.758 119.124C156.371 120.102 156.378 123.908 153.768 125.088C153.123 125.38 142.167 125.446 141.115 125.164C138.766 124.536 137.921 121.434 139.664 119.841C140.723 118.871 140.378 118.914 147.211 118.908C152.894 118.904 153.195 118.914 153.758 119.124ZM73.1349 138.046C73.8432 138.287 74.6726 139.059 74.9983 139.779L75.2628 140.365V146.298C75.2628 153.003 75.2806 152.85 74.3903 153.816C72.7676 155.576 70.1072 155.113 69.0829 152.891L68.8299 152.343V146.354V140.365L69.0852 139.81C69.7952 138.267 71.5465 137.504 73.1349 138.046ZM90.0268 138.179C90.7167 138.533 91.0991 138.899 91.4606 139.551L91.7881 140.143V146.354V152.564L91.4592 153.159C90.1791 155.469 87.0004 155.447 85.7615 153.119L85.4664 152.564V146.409V140.253L85.777 139.621C86.5173 138.113 88.5518 137.423 90.0268 138.179ZM107.883 138.179C108.573 138.533 108.955 138.899 109.317 139.551L109.644 140.143V146.354V152.564L109.315 153.159C108.036 155.469 104.857 155.447 103.618 153.119L103.323 152.564V146.409V140.253L103.634 139.621C104.374 138.113 106.408 137.423 107.883 138.179ZM124.148 138.044C124.821 138.273 125.608 138.978 125.981 139.685L126.281 140.253V146.243C126.281 153.009 126.299 152.849 125.408 153.816C123.786 155.576 121.125 155.113 120.101 152.891L119.848 152.343V146.354C119.848 140.498 119.853 140.353 120.082 139.86C120.816 138.273 122.55 137.499 124.148 138.044Z" fill="#CBD5E1"/>
      <path fill-rule="evenodd" clip-rule="evenodd" d="M44.9569 74.2904C46.4666 74.3077 48.9371 74.3077 50.4469 74.2904C51.9566 74.273 50.7214 74.2588 47.7019 74.2588C44.6824 74.2588 43.4471 74.273 44.9569 74.2904ZM144.553 74.2904C146.063 74.3077 148.533 74.3077 150.043 74.2904C151.553 74.273 150.317 74.2588 147.298 74.2588C144.278 74.2588 143.043 74.273 144.553 74.2904ZM45.0044 84.494C46.4794 84.5114 48.9247 84.5118 50.4391 84.494C51.9529 84.4766 50.7461 84.4624 47.7572 84.4624C44.7679 84.4624 43.5294 84.4766 45.0044 84.494ZM144.394 84.494C145.939 84.5114 148.434 84.5114 149.94 84.494C151.445 84.4766 150.182 84.4624 147.132 84.4624C144.082 84.4624 142.85 84.4766 144.394 84.494ZM45.0044 102.351C46.4794 102.368 48.9247 102.368 50.4391 102.351C51.9529 102.333 50.7461 102.319 47.7572 102.319C44.7679 102.319 43.5294 102.333 45.0044 102.351ZM144.394 102.351C145.939 102.368 148.434 102.368 149.94 102.351C151.445 102.333 150.182 102.319 147.132 102.319C144.082 102.319 142.85 102.333 144.394 102.351ZM86.3258 123.645C92.4714 123.661 102.528 123.661 108.674 123.645C114.82 123.629 109.791 123.616 97.4998 123.616C85.2082 123.616 80.1798 123.629 86.3258 123.645ZM45.0044 125.308C46.4794 125.326 48.9247 125.326 50.4391 125.309C51.9529 125.291 50.7461 125.277 47.7572 125.277C44.7679 125.277 43.5294 125.291 45.0044 125.308ZM144.49 125.308C145.965 125.326 148.41 125.326 149.924 125.309C151.438 125.291 150.232 125.277 147.242 125.277C144.254 125.277 143.015 125.291 144.49 125.308Z" fill="#ECA3A4"/>
      <path fill-rule="evenodd" clip-rule="evenodd" d="M75.2586 46.7575C75.2586 49.8685 75.2728 51.1568 75.2902 49.621C75.3075 48.0851 75.3075 45.5396 75.2902 43.9644C75.2728 42.3897 75.2586 43.6465 75.2586 46.7575ZM126.277 46.7575C126.277 49.8685 126.291 51.1568 126.308 49.621C126.326 48.0851 126.326 45.5396 126.309 43.9644C126.291 42.3897 126.277 43.6465 126.277 46.7575ZM68.8257 46.8128C68.8257 49.8323 68.8403 51.0676 68.8577 49.5578C68.8751 48.0481 68.8751 45.5776 68.8577 44.0678C68.8403 42.5581 68.8257 43.7933 68.8257 46.8128ZM119.844 46.8682C119.844 49.857 119.858 51.0639 119.876 49.55C119.893 48.0362 119.893 45.5904 119.876 44.1154C119.858 42.6404 119.844 43.8793 119.844 46.8682ZM75.2586 146.354C75.2586 149.465 75.2728 150.753 75.2902 149.217C75.3075 147.682 75.3075 145.136 75.2902 143.561C75.2728 141.986 75.2586 143.243 75.2586 146.354ZM126.277 146.354C126.277 149.465 126.291 150.753 126.308 149.217C126.326 147.682 126.326 145.136 126.309 143.561C126.291 141.986 126.277 143.243 126.277 146.354ZM68.8257 146.409C68.8257 149.368 68.8403 150.578 68.8577 149.099C68.8751 147.619 68.8751 145.199 68.8577 143.72C68.8403 142.24 68.8257 143.451 68.8257 146.409ZM119.844 146.409C119.844 149.368 119.858 150.578 119.876 149.099C119.893 147.619 119.893 145.199 119.876 143.72C119.858 142.24 119.844 143.451 119.844 146.409Z" fill="black"/>
      <path fill-rule="evenodd" clip-rule="evenodd" d="M85.4624 46.8127C85.4624 50.0152 85.4766 51.3255 85.4935 49.7242C85.5109 48.123 85.5109 45.5024 85.4935 43.9011C85.4766 42.2999 85.4624 43.6102 85.4624 46.8127ZM103.319 46.868C103.319 50.0399 103.333 51.3218 103.35 49.7164C103.368 48.1106 103.368 45.5152 103.35 43.9492C103.333 42.3827 103.319 43.6962 103.319 46.868ZM70.3813 96.4446C70.3813 108.889 70.3942 113.963 70.4102 107.721C70.4257 101.478 70.4257 91.2972 70.4102 85.0954C70.3942 78.8935 70.3813 84.0006 70.3813 96.4446ZM124.616 96.4999C124.616 108.913 124.629 113.992 124.645 107.785C124.661 101.578 124.661 91.4217 124.645 85.2148C124.629 79.0083 124.616 84.0866 124.616 96.4999ZM127.608 126.695L126.946 127.388L127.639 126.726C128.02 126.362 128.332 126.05 128.332 126.033C128.332 125.951 128.223 126.051 127.608 126.695ZM88.4329 137.945C88.5395 137.973 88.7143 137.973 88.8209 137.945C88.9279 137.917 88.8406 137.895 88.6269 137.895C88.4133 137.895 88.3259 137.917 88.4329 137.945ZM106.289 137.945C106.396 137.973 106.571 137.973 106.678 137.945C106.784 137.917 106.697 137.895 106.483 137.895C106.27 137.895 106.183 137.917 106.289 137.945ZM85.4619 146.409C85.4619 149.551 85.4761 150.836 85.4935 149.265C85.5109 147.694 85.5109 145.124 85.4935 143.553C85.4761 141.982 85.4619 143.267 85.4619 146.409ZM103.319 146.409C103.319 149.551 103.333 150.836 103.35 149.265C103.368 147.694 103.368 145.124 103.35 143.553C103.333 141.982 103.319 143.267 103.319 146.409Z" fill="#EEACAC"/>
    </g>
    <path d="M264.784 155V38.6364H307.398C315.655 38.6364 322.492 40 327.909 42.7273C333.326 45.4167 337.379 49.072 340.068 53.6932C342.758 58.2765 344.102 63.447 344.102 69.2045C344.102 74.053 343.212 78.1439 341.432 81.4773C339.652 84.7727 337.265 87.4242 334.273 89.4318C331.318 91.4015 328.061 92.8409 324.5 93.75V94.8864C328.364 95.0758 332.133 96.3258 335.807 98.6364C339.519 100.909 342.587 104.148 345.011 108.352C347.436 112.557 348.648 117.67 348.648 123.693C348.648 129.64 347.246 134.981 344.443 139.716C341.678 144.413 337.398 148.144 331.602 150.909C325.807 153.636 318.402 155 309.386 155H264.784ZM282.341 139.943H307.682C316.091 139.943 322.114 138.314 325.75 135.057C329.386 131.799 331.205 127.727 331.205 122.841C331.205 119.167 330.277 115.795 328.42 112.727C326.564 109.659 323.913 107.216 320.466 105.398C317.057 103.58 313.004 102.67 308.307 102.67H282.341V139.943ZM282.341 88.9773H305.864C309.803 88.9773 313.345 88.2197 316.489 86.7045C319.67 85.1894 322.189 83.0682 324.045 80.3409C325.939 77.5758 326.886 74.3182 326.886 70.5682C326.886 65.7576 325.201 61.7235 321.83 58.4659C318.458 55.2083 313.288 53.5795 306.318 53.5795H282.341V88.9773ZM385.097 38.6364V155H368.108V38.6364H385.097ZM444.713 156.761C436.531 156.761 429.391 154.886 423.293 151.136C417.194 147.386 412.459 142.14 409.088 135.398C405.717 128.655 404.031 120.777 404.031 111.761C404.031 102.708 405.717 94.7917 409.088 88.0114C412.459 81.2311 417.194 75.9659 423.293 72.2159C429.391 68.4659 436.531 66.5909 444.713 66.5909C452.895 66.5909 460.035 68.4659 466.134 72.2159C472.232 75.9659 476.967 81.2311 480.338 88.0114C483.709 94.7917 485.395 102.708 485.395 111.761C485.395 120.777 483.709 128.655 480.338 135.398C476.967 142.14 472.232 147.386 466.134 151.136C460.035 154.886 452.895 156.761 444.713 156.761ZM444.77 142.5C450.073 142.5 454.467 141.098 457.952 138.295C461.437 135.492 464.012 131.761 465.679 127.102C467.384 122.443 468.236 117.311 468.236 111.705C468.236 106.136 467.384 101.023 465.679 96.3636C464.012 91.6667 461.437 87.8977 457.952 85.0568C454.467 82.2159 450.073 80.7955 444.77 80.7955C439.429 80.7955 434.997 82.2159 431.474 85.0568C427.99 87.8977 425.395 91.6667 423.69 96.3636C422.024 101.023 421.19 106.136 421.19 111.705C421.19 117.311 422.024 122.443 423.69 127.102C425.395 131.761 427.99 135.492 431.474 138.295C434.997 141.098 439.429 142.5 444.77 142.5ZM541.119 156.761C532.672 156.761 525.4 154.848 519.301 151.023C513.241 147.159 508.581 141.837 505.324 135.057C502.066 128.277 500.438 120.511 500.438 111.761C500.438 102.898 502.104 95.0758 505.438 88.2955C508.771 81.4773 513.468 76.1553 519.528 72.3295C525.589 68.5038 532.729 66.5909 540.949 66.5909C547.578 66.5909 553.487 67.822 558.676 70.2841C563.866 72.7083 568.051 76.1174 571.233 80.5114C574.453 84.9053 576.366 90.0379 576.972 95.9091H560.438C559.528 91.8182 557.445 88.2955 554.188 85.3409C550.968 82.3864 546.65 80.9091 541.233 80.9091C536.498 80.9091 532.35 82.1591 528.79 84.6591C525.267 87.1212 522.521 90.6439 520.551 95.2273C518.581 99.7727 517.597 105.152 517.597 111.364C517.597 117.727 518.563 123.22 520.494 127.841C522.426 132.462 525.153 136.042 528.676 138.58C532.237 141.117 536.422 142.386 541.233 142.386C544.453 142.386 547.369 141.799 549.983 140.625C552.634 139.413 554.85 137.689 556.631 135.455C558.449 133.22 559.718 130.53 560.438 127.386H576.972C576.366 133.03 574.528 138.068 571.46 142.5C568.392 146.932 564.282 150.417 559.131 152.955C554.017 155.492 548.013 156.761 541.119 156.761ZM610.764 125.398L610.651 104.659H613.605L648.378 67.7273H668.719L629.06 109.773H626.389L610.764 125.398ZM595.139 155V38.6364H612.128V155H595.139ZM650.253 155L619.003 113.523L630.707 101.648L671.105 155H650.253ZM685.565 155V38.6364H758.52V53.75H703.122V89.2045H754.713V104.261H703.122V139.886H759.202V155H685.565ZM813.278 156.705C806.233 156.705 799.945 154.905 794.415 151.307C788.922 147.67 784.604 142.5 781.46 135.795C778.354 129.053 776.801 120.966 776.801 111.534C776.801 102.102 778.373 94.0341 781.517 87.3295C784.699 80.625 789.055 75.4924 794.585 71.9318C800.116 68.3712 806.384 66.5909 813.392 66.5909C818.809 66.5909 823.165 67.5 826.46 69.3182C829.794 71.0985 832.369 73.1818 834.188 75.5682C836.044 77.9545 837.483 80.0568 838.506 81.875H839.528V38.6364H856.517V155H839.926V141.42H838.506C837.483 143.277 836.006 145.398 834.074 147.784C832.18 150.17 829.566 152.254 826.233 154.034C822.9 155.814 818.581 156.705 813.278 156.705ZM817.028 142.216C821.915 142.216 826.044 140.928 829.415 138.352C832.824 135.739 835.4 132.121 837.142 127.5C838.922 122.879 839.812 117.5 839.812 111.364C839.812 105.303 838.941 100 837.199 95.4545C835.456 90.9091 832.9 87.3674 829.528 84.8295C826.157 82.2917 821.991 81.0227 817.028 81.0227C811.915 81.0227 807.653 82.3485 804.244 85C800.835 87.6515 798.259 91.2689 796.517 95.8523C794.813 100.436 793.96 105.606 793.96 111.364C793.96 117.197 794.831 122.443 796.574 127.102C798.316 131.761 800.892 135.455 804.301 138.182C807.748 140.871 811.991 142.216 817.028 142.216ZM918.378 156.761C909.779 156.761 902.374 154.924 896.162 151.25C889.988 147.538 885.215 142.33 881.844 135.625C878.51 128.883 876.844 120.985 876.844 111.932C876.844 102.992 878.51 95.1136 881.844 88.2955C885.215 81.4773 889.912 76.1553 895.935 72.3295C901.995 68.5038 909.079 66.5909 917.185 66.5909C922.109 66.5909 926.882 67.4053 931.503 69.0341C936.124 70.6629 940.272 73.2197 943.946 76.7045C947.62 80.1894 950.518 84.7159 952.639 90.2841C954.76 95.8144 955.821 102.538 955.821 110.455V116.477H886.446V103.75H939.173C939.173 99.2803 938.264 95.322 936.446 91.875C934.628 88.3902 932.071 85.6439 928.776 83.6364C925.518 81.6288 921.692 80.625 917.298 80.625C912.526 80.625 908.359 81.7992 904.798 84.1477C901.276 86.4583 898.548 89.4886 896.616 93.2386C894.723 96.9508 893.776 100.985 893.776 105.341V115.284C893.776 121.117 894.798 126.08 896.844 130.17C898.927 134.261 901.825 137.386 905.537 139.545C909.249 141.667 913.586 142.727 918.548 142.727C921.768 142.727 924.704 142.273 927.355 141.364C930.007 140.417 932.298 139.015 934.23 137.159C936.162 135.303 937.639 133.011 938.662 130.284L954.741 133.182C953.454 137.917 951.143 142.064 947.81 145.625C944.514 149.148 940.366 151.894 935.366 153.864C930.404 155.795 924.741 156.761 918.378 156.761ZM991.659 103.182V155H974.67V67.7273H990.977V81.9318H992.057C994.064 77.3106 997.208 73.5985 1001.49 70.7955C1005.81 67.9924 1011.24 66.5909 1017.8 66.5909C1023.74 66.5909 1028.95 67.8409 1033.42 70.3409C1037.89 72.803 1041.36 76.4773 1043.82 81.3636C1046.28 86.25 1047.51 92.2917 1047.51 99.4886V155H1030.52V101.534C1030.52 95.2083 1028.88 90.2652 1025.58 86.7045C1022.28 83.1061 1017.76 81.3068 1012 81.3068C1008.06 81.3068 1004.56 82.1591 1001.49 83.8636C998.458 85.5682 996.053 88.0682 994.273 91.3636C992.53 94.6212 991.659 98.5606 991.659 103.182ZM1081.49 156.08C1078.38 156.08 1075.71 154.981 1073.48 152.784C1071.24 150.549 1070.12 147.86 1070.12 144.716C1070.12 141.61 1071.24 138.958 1073.48 136.761C1075.71 134.527 1078.38 133.409 1081.49 133.409C1084.59 133.409 1087.27 134.527 1089.5 136.761C1091.73 138.958 1092.85 141.61 1092.85 144.716C1092.85 146.799 1092.32 148.712 1091.26 150.455C1090.24 152.159 1088.88 153.523 1087.17 154.545C1085.47 155.568 1083.57 156.08 1081.49 156.08ZM1129.02 67.7273L1148.28 101.705L1167.71 67.7273H1186.29L1159.07 111.364L1186.52 155H1167.94L1148.28 122.386L1128.68 155H1110.04L1137.2 111.364L1110.38 67.7273H1129.02ZM1214.47 187.727C1211.93 187.727 1209.62 187.519 1207.54 187.102C1205.46 186.723 1203.9 186.307 1202.88 185.852L1206.97 171.932C1210.08 172.765 1212.84 173.125 1215.27 173.011C1217.69 172.898 1219.83 171.989 1221.69 170.284C1223.58 168.58 1225.25 165.795 1226.69 161.932L1228.79 156.136L1196.86 67.7273H1215.04L1237.14 135.455H1238.05L1260.15 67.7273H1278.39L1242.43 166.648C1240.76 171.193 1238.64 175.038 1236.06 178.182C1233.49 181.364 1230.42 183.75 1226.86 185.341C1223.3 186.932 1219.17 187.727 1214.47 187.727ZM1292.54 155V143.352L1339.81 83.2955V82.5H1294.07V67.7273H1361.01V80.1136L1315.55 139.432V140.227H1362.6V155H1292.54Z" fill="#CBD5E1"/>
  </g>
  <defs>
    <clipPath id="clip0_420_50">
      <rect width="1372" height="194" fill="#CBD5E1"/>
    </clipPath>
    <clipPath id="clip1_420_50">
      <rect width="183" height="183" fill="#CBD5E1" transform="translate(6 5)"/>
    </clipPath>
  </defs>
</svg>
